<svg width="375" height="812" fill="none" xmlns="http://www.w3.org/2000/svg"><g opacity=".15" fill="#3E4868"><path d="M419.666 640.962l-16.399-56.976c-1.309-4.265-6.9-9.195-13.752-6.624-21.095 6.074-43.191-6.149-49.262-27.241-6.071-21.092 6.15-43.19 27.248-49.263 4.494-.992 9.874-5.66 8.121-12.92l-14.224-49.415c-4.263-14.812-14.037-27.078-27.524-34.536-13.488-7.459-29.071-9.216-43.884-4.954l-513.046 147.67c-14.813 4.264-27.078 14.038-34.536 27.526-7.458 13.487-9.218 29.072-4.954 43.883 8.004 22.041 18.379 65.4 14.726 88.682a10.2 10.2 0 009.962 10.197c16.851.392 31.551 11.515 36.793 27.151a39.13 39.13 0 01-12.86 6.881 10.198 10.198 0 00-6.752 12.554l6.933 24.088c-6.811 5.552-15.193 8.673-24.114 8.881a10.199 10.199 0 00-9.962 10.197v59.29c0 31.817 25.885 57.702 57.702 57.702h129.14c5.634 0 10.2-4.566 10.2-10.199s-4.566-10.2-10.2-10.2h-129.14c-20.57 0-37.305-16.734-37.305-37.303v-50.145a59.348 59.348 0 0019.64-7.51l3.507 12.177c4.263 14.812 14.037 27.078 27.524 34.536 12.189 6.359 27.128 9.887 43.884 4.953L339.543 724.07a59.858 59.858 0 00-9.675 32.698c0 30.133 22.253 55.165 51.189 59.529v49.736c0 20.57-16.735 37.303-37.303 37.303H-12.088c-5.634 0-10.2 4.566-10.2 10.2 0 5.632 4.566 10.199 10.2 10.199h355.843c31.817 0 57.701-25.885 57.701-57.702v-59.29c-.085-4.459-4.079-10.748-11.384-10.17-21.948 0-39.805-17.856-39.805-39.803 0-21.947 17.857-39.803 39.805-39.803 4.594.296 11.057-2.71 11.384-10.17v-5.775a57.673 57.673 0 0013.258-16.171c7.458-13.491 9.216-29.075 4.952-43.889zm-647.089 56.708v-24.349c26.943-1.012 47.589 25.67 39.55 51.42-8.799-13.899-23.107-23.879-39.55-27.071zm328.791 11.249l36.617-10.539 16.605 57.698-36.614 10.539-16.608-57.698zm295.494-33.943c-5.013 9.067-12.836 14.508-22.327 17.794l-152.557 43.91-1.128-3.92c-1.558-5.414-7.219-8.537-12.62-6.981-5.413 1.559-8.539 7.21-6.981 12.622l1.128 3.92-28.184 8.112-19.427-67.498a10.201 10.201 0 00-12.622-6.98l-56.219 16.181a10.197 10.197 0 00-6.978 12.623l19.428 67.498-236.885 68.183c-9.579 2.758-19.653 1.619-28.372-3.201-8.719-4.821-15.037-12.751-17.795-22.328l-13.87-48.192c24.49-12.397 37.745-41.105 31.173-67.83-7.236-29.415-34.316-47.442-63.877-45.788l-11.694-40.631c-2.755-9.575-1.619-19.652 3.204-28.37 4.82-8.719 12.75-15.038 22.326-17.795l340.888-98.118 1.129 3.921c1.286 4.47 5.365 7.38 9.796 7.38.935 0 1.884-.13 2.827-.401 5.413-1.559 8.538-7.21 6.979-12.622l-1.128-3.92 152.554-43.91c9.578-2.756 19.652-1.619 28.373 3.203 8.718 4.821 15.036 12.751 17.794 22.327l11.58 40.234c-26.599 12.196-41.06 42.408-32.725 71.365 8.335 28.954 36.624 46.861 65.656 43.046l13.757 47.795c2.755 9.577 1.619 19.652-3.203 28.371z"/><path d="M165.235 539.543l-7.486-26.01c-1.558-5.414-7.22-8.538-12.622-6.981-5.412 1.559-8.539 7.21-6.98 12.622l7.486 26.011c1.495 3.915 6.169 8.831 12.621 6.98 5.415-1.559 8.54-7.21 6.981-12.622zm21.035 73.075l-7.487-26.01c-1.559-5.414-7.217-8.535-12.624-6.98-5.412 1.558-8.537 7.209-6.979 12.623l7.488 26.01c1.497 3.915 6.169 8.83 12.622 6.98 5.414-1.558 8.539-7.209 6.98-12.623zm13.547 47.067c-1.559-5.415-7.221-8.538-12.622-6.981-5.413 1.558-8.539 7.21-6.981 12.622l7.486 26.01c1.496 3.916 6.169 8.832 12.622 6.981 5.413-1.558 8.539-7.21 6.981-12.622l-7.486-26.01zM308.603 498.54a10.19 10.19 0 00.874-7.757l-11.413-39.65c-1.558-5.412-7.215-8.538-12.622-6.98l-102.598 29.529c-5.412 1.559-8.539 7.21-6.98 12.623l11.412 39.65c2.077 3.903 4.25 8.57 12.622 6.98l102.599-29.531a10.191 10.191 0 006.106-4.864zm-104.545 11.973l-5.771-20.048 82.996-23.888 5.771 20.048-82.996 23.888zm88.489 143.38l54.812-15.777c5.413-1.559 8.539-7.21 6.981-12.624-1.559-5.415-7.219-8.537-12.621-6.98l-54.813 15.777c-5.412 1.558-8.539 7.21-6.98 12.622 1.286 4.471 5.365 7.38 9.796 7.38.933.003 1.883-.127 2.825-.398zm59.283-.243l-54.812 15.775c-5.413 1.559-8.539 7.21-6.981 12.622 1.287 4.473 5.366 7.382 9.796 7.382.934 0 1.885-.13 2.826-.4l54.813-15.775c5.412-1.559 8.539-7.21 6.981-12.623-1.56-5.416-7.22-8.539-12.623-6.981zM53.2 599.591c-4.03 1.16-14.326 4.548-28 9.15l-58.288-55.183a10.198 10.198 0 00-9.832-2.395l-30.92 8.9c-4.894 1.517-9.943 8.171-5.494 15.708l39.25 55.248a31029.268 31029.268 0 00-76.17 26.319l-33.731-8.757c-6.982-1.944-15.974 5.899-11.369 15.019l25.811 44.161c3.15 3.178 4.928 6.224 12.115 4.5l18.497-6.346c5.584-1.286 42.305-9.746 81.002-18.776l-3.874 67.66c.814 4.918 2.198 11.899 13.003 10.385l30.92-8.9a10.197 10.197 0 007.055-7.255l20.033-77.727c14.022-3.37 24.548-5.975 28.577-7.135 23.04-6.631 31.904-35.519 32.839-38.79a10.198 10.198 0 00-2.99-10.389c-2.531-2.275-25.412-22.025-48.433-15.397zm-107.573-23.906l11.493-3.307 46.228 43.766c-7.448 2.537-15.31 5.224-23.316 7.968l-34.405-48.427zm59.25 162.609l-11.492 3.308 3.393-59.306c8.24-1.933 16.329-3.837 23.986-5.648L4.877 738.294zm61.268-93.728c-36.657 9.717-170.114 39.987-177.191 41.882l-11.1 3.808-9.215-15.764 12.971 3.368c9.647.355 12.602-3.323 31.236-9.013C-55.212 657.78-.68 639.004 25.93 630.022c16.206-5.48 28.566-9.576 32.913-10.827 7.58-2.184 17.391 2.67 23.78 6.914-3.13 6.979-8.83 16.255-16.478 18.457z"/></g><g opacity=".15" fill="#3E4868"><path d="M649.666 106.106L633.267 49.13c-1.309-4.265-6.9-9.196-13.752-6.624-21.095 6.074-43.191-6.149-49.262-27.242-6.071-21.09 6.15-43.19 27.248-49.262 4.494-.992 9.874-5.66 8.121-12.92l-14.224-49.415c-4.263-14.812-14.037-27.078-27.524-34.536-13.488-7.459-29.071-9.216-43.884-4.955L6.944 11.846c-14.813 4.265-27.078 14.04-34.536 27.527-7.458 13.487-9.218 29.072-4.954 43.883 8.004 22.041 18.38 65.4 14.726 88.682a10.2 10.2 0 009.962 10.197c16.851.391 31.55 11.515 36.793 27.151a39.126 39.126 0 01-12.86 6.881 10.198 10.198 0 00-6.752 12.554l6.933 24.088c-6.81 5.552-15.193 8.673-24.114 8.881a10.199 10.199 0 00-9.962 10.197v59.29c0 31.817 25.885 57.702 57.702 57.702h129.141c5.633 0 10.199-4.566 10.199-10.199s-4.566-10.2-10.199-10.2H39.882c-20.57 0-37.305-16.735-37.305-37.303v-50.145a59.353 59.353 0 0019.64-7.51l3.507 12.177c4.262 14.812 14.037 27.078 27.524 34.535 12.189 6.36 27.128 9.888 43.884 4.954l472.411-135.974a59.858 59.858 0 00-9.675 32.698c0 30.132 22.253 55.165 51.189 59.529v49.736c0 20.57-16.735 37.303-37.303 37.303H217.912c-5.634 0-10.2 4.566-10.2 10.2 0 5.632 4.566 10.199 10.2 10.199h355.843c31.817 0 57.701-25.885 57.701-57.702v-59.29c-.085-4.459-4.079-10.748-11.384-10.17-21.948 0-39.805-17.856-39.805-39.803 0-21.947 17.857-39.803 39.805-39.803 4.594.296 11.057-2.71 11.384-10.17v-5.775a57.673 57.673 0 0013.258-16.171c7.458-13.492 9.216-29.075 4.952-43.889zM2.577 162.814v-24.349c26.943-1.012 47.589 25.67 39.55 51.42-8.8-13.899-23.107-23.879-39.55-27.071zm328.791 11.249l36.617-10.539 16.605 57.698-36.614 10.539-16.608-57.698zm295.494-33.943c-5.013 9.067-12.836 14.508-22.327 17.794l-152.557 43.91-1.128-3.92c-1.558-5.414-7.219-8.537-12.62-6.981-5.413 1.559-8.539 7.21-6.981 12.622l1.128 3.92-28.184 8.112-19.427-67.498a10.197 10.197 0 00-12.622-6.98l-56.218 16.181a10.197 10.197 0 00-6.98 12.623l19.429 67.498L91.49 305.584c-9.579 2.758-19.653 1.619-28.372-3.201-8.719-4.821-15.037-12.751-17.794-22.329l-13.871-48.191c24.49-12.397 37.745-41.105 31.173-67.83-7.236-29.415-34.316-47.442-63.877-45.788l-11.694-40.63c-2.755-9.577-1.619-19.653 3.204-28.371 4.82-8.72 12.75-15.038 22.326-17.795l340.888-98.118 1.129 3.92c1.286 4.471 5.365 7.38 9.796 7.38.935 0 1.884-.13 2.827-.4 5.413-1.559 8.538-7.21 6.979-12.622l-1.128-3.92 152.554-43.91c9.578-2.757 19.652-1.619 28.373 3.203 8.718 4.821 15.036 12.751 17.794 22.327l11.58 40.233c-26.599 12.197-41.06 42.409-32.725 71.365 8.335 28.955 36.624 46.862 65.656 43.047l13.757 47.795c2.755 9.577 1.619 19.652-3.203 28.371z"/><path d="M395.235 4.687l-7.486-26.01c-1.558-5.414-7.22-8.538-12.622-6.98-5.412 1.558-8.539 7.209-6.98 12.621l7.486 26.01c1.495 3.916 6.169 8.832 12.621 6.98 5.415-1.558 8.54-7.209 6.981-12.621zM160.367 224.885l-77.3 22.249c-5.412 1.559-8.538 7.21-6.98 12.622 1.287 4.471 5.366 7.38 9.796 7.38.935 0 1.885-.13 2.826-.4l77.299-22.249c5.413-1.558 8.539-7.209 6.981-12.622-1.559-5.415-7.219-8.537-12.622-6.98zm231.063 99.791c5.634 0 10.2-4.566 10.2-10.2 0-5.633-4.566-10.199-10.2-10.199H283.004c-5.634 0-10.2 4.566-10.2 10.199 0 5.634 4.566 10.2 10.2 10.2H391.43zM283.201 64.735c-4.031 1.16-14.327 4.548-28.001 9.15l-58.288-55.183a10.198 10.198 0 00-9.832-2.395l-30.92 8.9c-4.894 1.517-9.943 8.171-5.494 15.708l39.251 55.247a31135.497 31135.497 0 00-76.171 26.32l-33.731-8.757c-6.982-1.944-15.974 5.899-11.37 15.019l25.812 44.161c3.15 3.178 4.928 6.224 12.115 4.5l18.497-6.346c5.584-1.286 42.305-9.746 81.002-18.776l-3.874 67.66c.814 4.918 2.198 11.899 13.003 10.385l30.919-8.9a10.198 10.198 0 007.056-7.255l20.033-77.727c14.022-3.37 24.548-5.975 28.577-7.135 23.039-6.631 31.904-35.519 32.839-38.79a10.198 10.198 0 00-2.99-10.389c-2.531-2.275-25.412-22.025-48.433-15.397zM175.627 40.829l11.493-3.308 46.228 43.767c-7.448 2.537-15.31 5.224-23.316 7.968l-34.405-48.427zm59.25 162.609l-11.492 3.308 3.393-59.307c8.24-1.932 16.329-3.836 23.986-5.647l-15.887 61.646zm61.268-93.728c-36.657 9.717-170.114 39.987-177.191 41.882l-11.1 3.808-9.215-15.764 12.971 3.368c9.647.355 12.602-3.323 31.236-9.013 31.942-11.067 86.474-29.844 113.084-38.825 16.206-5.48 28.567-9.576 32.912-10.828 7.58-2.183 17.392 2.671 23.781 6.915-3.13 6.98-8.83 16.255-16.478 18.457z"/></g></svg>