<svg width="11" height="11" fill="none" xmlns="http://www.w3.org/2000/svg"><path d="M1.127 9.25h1.75v1.5a.242.242 0 00.25.25h1.305a.247.247 0 00.25-.25v-1.5h3.945a.243.243 0 00.18-.07.243.243 0 00.07-.18V8a.243.243 0 00-.07-.18.243.243 0 00-.18-.07H4.682v-.922h2.656c1.042 0 1.892-.317 2.55-.953.66-.635.99-1.455.99-2.461 0-1.005-.33-1.825-.99-2.46C9.23.317 8.38 0 7.339 0h-4.21a.244.244 0 00-.18.07.244.244 0 00-.07.18v4.914h-1.75a.247.247 0 00-.25.25v1.164a.24.24 0 00.25.25h1.75v.922h-1.75a.243.243 0 00-.18.07.243.243 0 00-.07.18v1a.24.24 0 00.25.25zm3.555-7.586h2.5c.552 0 .997.162 1.336.485.338.322.507.744.507 1.265 0 .521-.169.943-.507 1.266-.339.323-.784.484-1.336.484h-2.5v-3.5z" fill="#3E4868"/></svg>